HIERARCHY
ROOT joint_Root
{
  OFFSET 0 0 0
  CHANNELS 6 Xposition Yposition Zposition Zrotation Xrotation Yrotation
  JOINT Hips
  {
    OFFSET 1.68551 92.9464 -0.722065
    CHANNELS 6 Xposition Yposition Zposition Zrotation Xrotation Yrotation
    JOINT Spine
    {
      OFFSET 15.7357 0 0
      CHANNELS 6 Xposition Yposition Zposition Zrotation Xrotation Yrotation
      JOINT Chest
      {
        OFFSET 8.98455 -0.406207 0
        CHANNELS 6 Xposition Yposition Zposition Zrotation Xrotation Yrotation
        JOINT Neck
        {
          OFFSET 16.3773 0 0
          CHANNELS 6 Xposition Yposition Zposition Zrotation Xrotation Yrotation
          JOINT Head
          {
            OFFSET 6.45672 0 0
            CHANNELS 6 Xposition Yposition Zposition Zrotation Xrotation Yrotation
            End Site
            {
              OFFSET 0 0 0
            }
          }
        }
        JOINT Shoulder_L
        {
          OFFSET 12.9942 -0.242716 4.98039
          CHANNELS 6 Xposition Yposition Zposition Zrotation Xrotation Yrotation
          JOINT UpperArm_L
          {
            OFFSET 5.34809 0 0
            CHANNELS 6 Xposition Yposition Zposition Zrotation Xrotation Yrotation
            JOINT LowerArm_L
            {
              OFFSET 24.3286 1.87007e-05 0
              CHANNELS 6 Xposition Yposition Zposition Zrotation Xrotation Yrotation
              JOINT Hand_L
              {
                OFFSET 22.2916 0 0
                CHANNELS 6 Xposition Yposition Zposition Zrotation Xrotation Yrotation
                End Site
                {
                  OFFSET 0 0 0
                }
              }
            }
          }
        }
        JOINT Shoulder_R
        {
          OFFSET 12.9945 -0.242716 -4.98039
          CHANNELS 6 Xposition Yposition Zposition Zrotation Xrotation Yrotation
          JOINT UpperArm_R
          {
            OFFSET -5.34813 0 0
            CHANNELS 6 Xposition Yposition Zposition Zrotation Xrotation Yrotation
            JOINT LowerArm_R
            {
              OFFSET -24.3289 0.000322201 0
              CHANNELS 6 Xposition Yposition Zposition Zrotation Xrotation Yrotation
              JOINT Hand_R
              {
                OFFSET -22.2915 -0.000108084 0
                CHANNELS 6 Xposition Yposition Zposition Zrotation Xrotation Yrotation
                End Site
                {
                  OFFSET 0 0 0
                }
              }
            }
          }
        }
      }
    }
    JOINT UpperLeg_L
    {
      OFFSET -2.19248 -6.46944 0
      CHANNELS 6 Xposition Yposition Zposition Zrotation Xrotation Yrotation
      JOINT LowerLeg_L
      {
        OFFSET 39.0811 0 -1.23785e-05
        CHANNELS 6 Xposition Yposition Zposition Zrotation Xrotation Yrotation
        JOINT Foot_L
        {
          OFFSET 40.9854 0 -1.26872e-05
          CHANNELS 6 Xposition Yposition Zposition Zrotation Xrotation Yrotation
          JOINT Toes_L
          {
            OFFSET 11.7543 0 0
            CHANNELS 6 Xposition Yposition Zposition Zrotation Xrotation Yrotation
            End Site
            {
              OFFSET 0 0 0
            }
          }
        }
      }
    }
    JOINT UpperLeg_R
    {
      OFFSET -2.19251 6.46944 0
      CHANNELS 6 Xposition Yposition Zposition Zrotation Xrotation Yrotation
      JOINT LowerLeg_R
      {
        OFFSET -39.0811 -0.00228153 -0.0401928
        CHANNELS 6 Xposition Yposition Zposition Zrotation Xrotation Yrotation
        JOINT Foot_R
        {
          OFFSET -40.9854 0 0
          CHANNELS 6 Xposition Yposition Zposition Zrotation Xrotation Yrotation
          JOINT Toes_R
          {
            OFFSET -11.7543 0 0
            CHANNELS 6 Xposition Yposition Zposition Zrotation Xrotation Yrotation
            End Site
            {
              OFFSET 0 0 0
            }
          }
        }
      }
    }
  }
}
MOTION
Frames:	9
Frame Time:	0.0333333
0 0 0 0 0 -0 51.7975 91.4348 -45.7438 79.1875 32.2546 13.1337 15.7357 3.60101e-06 -5.6356e-07 156.218 87.7797 -153.057 8.98454 -0.406212 -1.24128e-06 5.47434 4.00317 -9.28101 16.3773 4.16656e-07 -1.52216e-06 -2.29627 -18.6121 -8.34184 6.45673 -1.24203e-06 4.94097e-06 -32.6338 -22.729 -0.903692 12.9942 -0.242716 4.98039 -90.9869 -7.62738 -90.1857 5.34808 1.33368e-06 9.5933e-06 0.23422 -29.087 4.58661 24.3286 3.38051e-06 -1.39626e-05 10.2733 -9.71319 -12.2802 22.2916 -9.37053e-06 5.76136e-06 32.2648 53.7981 -4.5154 12.9945 -0.24271 -4.98039 87.9402 -33.3309 -89.5611 -5.34812 -2.44569e-06 -1.61641e-06 -7.98844 -53.9448 -43.01 -24.3289 0.000352029 1.63553e-05 15.3024 -24.8391 -20.0942 -22.2915 -0.000101394 9.90684e-06 5.65034 20.9776 -5.52394 -2.19248 -6.46944 4.81137e-07 177.824 0.0958466 -0.507796 39.0811 -2.36858e-07 -3.93453e-05 2.81409 3.56219 30.1843 40.9854 -1.565e-05 -1.35461e-05 6.86207 -4.68593 -66.3644 11.7543 1.25921e-06 -2.04255e-06 -0.0257273 -0.120788 -22.1025 -2.1925 6.46944 -2.11182e-07 175.689 -5.94372 166.726 -39.0811 -4.04762e-05 -0.000657117 -2.55196 5.75517 29.7481 -40.9854 6.20845e-06 -1.17737e-06 -35.9687 5.02699 -49.2107 -11.7543 -6.64244e-06 -1.62045e-06 0.608797 0.206031 -18.8241 
0 0 0 0 0 -0 49.2034 88.7462 -46.0249 81.0919 28.4351 13.033 15.7357 6.18583e-08 4.6137e-06 123.267 86.72 -120.333 8.98454 -0.406208 -1.18132e-06 5.45462 3.71504 -8.80267 16.3773 4.39096e-07 -2.66742e-06 -1.21843 -18.2859 -8.90161 6.45672 7.99784e-07 -1.05807e-06 -32.9219 -22.5489 -0.702818 12.9942 -0.242712 4.98039 -91.1283 -8.08443 -89.1848 5.34808 5.39895e-07 -8.01733e-07 -1.43068 -29.5773 2.13074 24.3286 1.44535e-06 -6.89193e-06 10.2832 -9.84749 -12.3858 22.2916 -1.30043e-05 -1.32927e-06 33.8086 56.9445 -4.45011 12.9945 -0.242716 -4.98039 87.4877 -33.144 -92.5008 -5.34812 -1.88147e-07 -5.02346e-06 -12.8664 -51.8209 -49.6964 -24.3289 0.000343028 8.46461e-06 13.9956 -22.7454 -22.4314 -22.2915 -0.000114354 1.75961e-07 4.35245 24.1601 -6.90685 -2.19248 -6.46944 1.51692e-06 177.909 -2.23165 -5.02196 39.0811 2.69995e-07 0.000181823 3.06488 2.24631 40.6121 40.9854 -7.78722e-06 -1.57585e-05 7.11058 -5.29704 -74.0157 11.7543 2.14796e-07 1.83353e-06 -0.0256591 -0.120878 -22.1025 -2.1925 6.46945 -3.47515e-06 172.781 -5.00071 160.613 -39.0811 -8.76398e-06 -0.000613706 1.69254 1.50719 41.8877 -40.9854 2.4034e-05 -1.98768e-05 -26.0749 3.45247 -57.3342 -11.7543 -2.85904e-06 -3.18778e-06 0.609013 0.205998 -18.824 
0 0 0 0 0 -0 46.5401 86.2039 -46.0532 82.6431 26.441 13.0677 15.7357 4.40853e-06 -6.15065e-07 110.641 86.0555 -107.792 8.98454 -0.406209 -1.02325e-06 5.70394 3.36385 -8.59076 16.3773 4.3932e-06 -1.22279e-06 0.34583 -18.5498 -9.25096 6.45673 -1.35277e-06 -2.27833e-06 -33.6515 -22.6299 -1.18184 12.9942 -0.242711 4.98039 -90.9873 -8.56188 -89.8087 5.34808 1.5458e-06 1.12662e-06 -3.86311 -29.9804 -0.0876308 24.3286 1.81281e-05 -1.65475e-05 10.4011 -10.2576 -12.5931 22.2916 -5.29168e-06 -8.01772e-06 35.0216 59.9115 -4.64716 12.9945 -0.242714 -4.98039 87.4244 -32.6611 -93.3425 -5.34812 1.19609e-06 -6.00089e-06 -16.9391 -48.4222 -55.3656 -24.3289 0.000319625 -1.62091e-05 12.5179 -19.0601 -24.7921 -22.2915 -9.41125e-05 2.0929e-05 2.07513 29.3021 -8.34004 -2.19248 -6.46944 1.57684e-06 178.658 -3.49103 -10.0439 39.0811 -0.00166822 0.0311041 2.3848 1.44682 51.069 40.9854 3.74395e-06 -2.97126e-05 6.75568 -5.3391 -78.5738 11.7543 4.41689e-08 -3.90343e-06 -0.0256351 -0.120851 -22.1025 -2.1925 6.46944 -4.76212e-06 169.892 -3.60505 156.6 -39.0811 9.1449e-06 -7.74178e-05 6.98778 0.0561121 50.9068 -40.9854 -1.24956e-05 3.20314e-06 -18.0992 0.07918 -57.9035 -11.7543 -8.75585e-06 -8.55817e-07 0.608716 0.206109 -18.824 
0 0 0 0 0 -0 43.7945 84.3038 -45.6355 83.9008 24.2504 13.2174 15.7357 2.28421e-08 9.61828e-06 112.667 85.6603 -109.484 8.98454 -0.406209 2.6303e-06 6.06817 3.61785 -8.77536 16.3773 -2.26827e-07 -5.53852e-08 1.91217 -19.0164 -9.16639 6.45673 -4.44781e-07 3.62645e-07 -34.4023 -22.6568 -2.03525 12.9942 -0.242712 4.98039 -90.7159 -9.06494 -91.4468 5.34808 -7.6092e-07 2.41524e-06 -6.77367 -29.9973 -1.68797 24.3286 4.68925e-06 -3.63794e-06 10.4031 -10.4843 -12.9747 22.2916 -1.02399e-05 -7.69915e-06 35.6502 62.6789 -4.75527 12.9945 -0.242716 -4.98039 87.6546 -31.8933 -92.6257 -5.34812 3.04664e-06 -6.57152e-06 -20.1258 -44.4463 -59.3108 -24.329 0.000327849 2.47302e-05 11.0491 -14.7953 -27.073 -22.2914 -9.25874e-05 2.02875e-07 -0.829509 34.0889 -9.56168 -2.19248 -6.46944 1.38361e-06 -179.959 -4.3628 -13.0596 39.081 -0.00018052 0.00191423 2.22228 0.841399 57.7612 40.9854 -4.89238e-06 3.05205e-06 4.69882 -5.04956 -81.4656 11.7543 -2.04874e-06 2.05995e-06 -0.0256717 -0.120849 -22.1025 -2.1925 6.46945 -3.453e-06 167.979 -3.95829 155.015 -39.0811 4.86454e-06 4.07927e-05 10.6464 2.12338 56.8957 -40.9854 5.33135e-06 -1.27798e-05 -13.5895 -1.58256 -55.2827 -11.7543 -2.39705e-06 -8.14513e-07 0.608707 0.206082 -18.8242 
0 0 0 0 0 -0 40.9521 83.2796 -44.8388 84.9836 21.1438 13.2069 15.7357 -3.8081e-07 -2.27448e-06 121.834 85.5118 -118.402 8.98455 -0.406208 4.20792e-08 6.27131 4.23345 -9.11515 16.3773 2.1199e-06 -5.46813e-06 2.90276 -19.0983 -8.90022 6.45672 -1.73976e-06 1.15821e-06 -34.0723 -22.4014 -2.55585 12.9942 -0.242714 4.98039 -90.5889 -9.59211 -92.2315 5.34808 6.91422e-07 1.58902e-06 -9.97512 -29.7594 -3.1462 24.3286 -9.0672e-06 1.10461e-06 10.3196 -10.4407 -13.2098 22.2916 -4.85203e-06 -4.70475e-06 37.4282 65.756 -7.13235 12.9945 -0.242714 -4.98039 87.8953 -31.1442 -91.8067 -5.34812 1.84954e-06 -3.78901e-06 -22.5794 -40.5371 -60.993 -24.3289 0.000331077 1.14585e-05 9.93705 -11.1935 -28.9876 -22.2915 -9.73171e-05 -6.25579e-06 -5.12802 37.7962 -9.69282 -2.19248 -6.46944 3.00094e-08 -178.17 -4.66202 -14.2187 39.0811 2.0202e-05 -0.000192753 2.7424 -0.242249 61.1195 40.9854 -8.62811e-06 -2.17047e-05 1.79428 -4.69807 -82.9378 11.7543 1.93991e-07 2.70736e-06 -0.0256623 -0.120858 -22.1025 -2.1925 6.46944 -1.68284e-06 167.262 -5.89036 156.608 -39.0811 -9.07191e-06 0.000140542 12.2304 5.04076 57.8832 -40.9855 -2.79102e-06 -8.00207e-07 -11.1548 -1.7525 -51.3321 -11.7543 -6.92804e-06 3.3385e-07 0.608811 0.206065 -18.8241 
0 0 0 0 0 -0 37.9754 82.7568 -43.7045 85.8368 17.9132 13.0974 15.7357 -6.22589e-06 -7.6699e-06 128.128 85.8608 -125 8.98454 -0.406209 -6.28479e-07 6.19106 4.46781 -9.33051 16.3773 2.36148e-06 3.80369e-06 3.47366 -18.5427 -8.79582 6.45673 -2.07607e-06 -1.98223e-06 -32.7304 -21.8552 -2.28868 12.9942 -0.242716 4.98039 -90.658 -10.1069 -91.1713 5.34807 -4.57548e-08 -6.02078e-07 -13.0029 -29.5581 -4.7801 24.3286 -5.09507e-05 1.70866e-05 10.3735 -10.2549 -12.8177 22.2916 -1.08764e-05 -3.72391e-06 40.36 68.6272 -11.0789 12.9945 -0.242715 -4.98039 87.9612 -30.4918 -91.9857 -5.34813 -4.16391e-06 -7.58353e-06 -23.4654 -37.5309 -60.0519 -24.3289 0.000344549 1.65439e-05 9.17782 -8.18118 -30.0165 -22.2915 -9.43578e-05 -6.63457e-06 -10.7573 40.4474 -7.94742 -2.19248 -6.46944 -2.61304e-06 -176.798 -3.59762 -14.3024 39.0811 -8.20667e-05 0.000645046 4.75977 -1.2016 62.6161 40.9855 -1.73748e-05 6.13947e-07 -2.49461 -4.37876 -83.5989 11.7543 1.19058e-06 3.7074e-06 -0.0256795 -0.120805 -22.1025 -2.1925 6.46944 4.84574e-07 167.029 -7.31427 159.265 -39.0811 -1.89405e-06 -9.61806e-05 12.5923 7.67526 57.1421 -40.9854 5.06877e-06 1.84903e-06 -10.9252 -1.32751 -46.6952 -11.7543 -4.55653e-06 -8.29628e-07 0.608781 0.206098 -18.824 
0 0 0 0 0 -0 34.9445 82.8477 -42.292 86.4312 14.9996 12.8531 15.7357 3.77978e-06 1.15048e-05 133.346 86.7877 -131.089 8.98454 -0.406208 3.33726e-06 5.96482 4.28086 -9.44346 16.3773 -1.87919e-06 -4.07772e-06 3.85604 -17.597 -8.77356 6.45673 -1.87785e-06 2.88105e-06 -31.1364 -21.079 -1.58452 12.9942 -0.242719 4.98039 -90.7738 -10.5999 -89.2655 5.34808 -1.5534e-06 2.2587e-06 -15.2384 -29.4006 -5.83972 24.3286 -3.62831e-06 -1.437e-06 10.5812 -10.1205 -12.042 22.2916 -6.85088e-06 1.94464e-06 41.6096 70.1282 -13.1205 12.9945 -0.242717 -4.98039 87.9543 -29.9982 -92.4812 -5.34812 7.05123e-07 -5.56932e-06 -22.8946 -35.7409 -57.3071 -24.3289 0.000347413 1.29687e-05 8.65221 -5.74789 -29.9778 -22.2915 -9.98902e-05 7.80757e-06 -17.0144 41.1749 -4.91611 -2.19248 -6.46944 -2.19875e-06 -175.86 -1.69396 -13.2231 39.081 -5.46274e-05 0.000630285 7.6804 -1.89427 61.9537 40.9854 -1.25333e-05 -7.13397e-06 -7.47844 -4.1299 -83.2295 11.7543 -4.93857e-06 7.53478e-07 -0.0256857 -0.120823 -22.1025 -2.19251 6.46945 -3.0932e-06 166.859 -7.37008 163.265 -39.081 4.0259e-06 -6.1068e-05 11.937 9.94265 53.7987 -40.9854 5.40806e-06 -3.10966e-06 -15.9903 -2.0856 -45.0375 -11.7543 -6.55285e-06 -6.24639e-06 0.608746 0.206058 -18.8241 
0 0 0 0 0 -0 31.5068 83.5664 -40.7996 86.7216 12.409 12.4096 15.7357 -1.73986e-06 -3.30723e-06 147.102 87.8056 -146.093 8.98454 -0.406205 4.55805e-07 5.75575 4.04563 -9.52976 16.3774 9.76455e-06 -3.00591e-05 4.14115 -16.7883 -8.64309 6.45681 3.1182e-06 -1.74735e-05 -29.8998 -20.3556 -1.02467 12.9942 -0.242714 4.98039 -90.8312 -11.0307 -88.1852 5.34808 -3.125e-07 2.41544e-06 -16.1809 -29.259 -5.54575 24.3287 -2.30178e-05 8.80024e-06 10.9103 -10.1282 -11.1829 22.2916 -1.74637e-06 -1.5606e-06 40.7293 70.6485 -12.9994 12.9945 -0.242717 -4.98039 88.0565 -29.5661 -92.0597 -5.34812 1.31783e-06 -4.37554e-06 -21.3497 -34.9655 -53.6776 -24.3289 0.00034723 2.22622e-05 8.41672 -4.37089 -29.0951 -22.2915 -0.000106517 -3.3096e-06 -23.1025 40.7205 -1.44937 -2.19248 -6.46944 1.06136e-07 -174.495 0.0449967 -11.1851 39.0811 2.70854e-05 -0.000410769 10.2701 -2.61882 59.0211 40.9854 -8.84249e-06 5.97847e-07 -12.2453 -3.98338 -81.5889 11.7543 4.59291e-06 1.70065e-06 -0.0256447 -0.120861 -22.1025 -2.1925 6.46945 -2.02957e-06 167.165 -6.18446 167.999 -39.0811 -1.83728e-06 -6.54196e-05 12.3279 10.5159 47.7292 -40.9854 6.16386e-06 1.2007e-05 -23.8201 -0.476375 -49.4881 -11.7543 -5.87174e-06 -3.10603e-07 0.608844 0.206035 -18.824 
0 0 0 0 0 -0 27.4299 84.7736 -39.3842 86.5884 10.3087 11.8402 15.7357 8.30656e-07 -2.79239e-06 175.952 88.5526 -176.26 8.98454 -0.406207 1.65635e-07 5.5312 3.73496 -9.61715 16.3773 -3.55758e-06 5.46536e-06 4.32019 -16.2976 -8.70032 6.45673 1.80524e-06 -8.24196e-06 -29.1963 -19.9966 -0.514347 12.9942 -0.242715 4.98039 -90.843 -11.4283 -87.9691 5.34807 -3.87858e-06 -1.43102e-06 -15.9001 -29.1448 -4.26195 24.3286 8.82908e-06 2.01787e-05 11.1891 -10.0186 -10.4071 22.2916 -6.41231e-06 -4.19e-06 38.3178 70.4375 -11.3144 12.9945 -0.242717 -4.98039 88.2006 -29.6119 -90.796 -5.34812 2.7382e-06 -4.85372e-06 -19.5616 -35.0123 -49.5212 -24.3289 0.000315169 -2.93319e-05 8.66088 -4.72796 -27.6154 -22.2915 -0.000108247 9.46311e-06 -29.3543 39.4126 2.50165 -2.19248 -6.46944 1.96715e-06 -172.677 1.63291 -8.28478 39.081 -1.45831e-05 6.72271e-05 12.6199 -3.23183 53.712 40.9855 -1.46091e-05 -8.64141e-06 -16.6872 -4.25219 -78.5181 11.7543 5.13346e-06 -2.70306e-06 -0.0256708 -0.120807 -22.1025 -2.19251 6.46945 -3.5611e-06 168.746 -3.83895 171.455 -39.0811 -8.47485e-06 9.48077e-05 11.9186 10.2878 42.1526 -40.9854 8.44341e-06 -2.81563e-06 -25.6452 2.25671 -55.6665 -11.7543 -7.49993e-06 -8.88549e-06 0.608797 0.206026 -18.8241 
